<svg xmlns="http://www.w3.org/2000/svg" width="500px" height="600px" xmlns:xlink="http://www.w3.org/1999/xlink" joint-selector="svg" id="v-250" viewBox="0 0 440 590"><defs joint-selector="defs"><marker id="v-2-857093843" orient="auto" overflow="visible" markerUnits="userSpaceOnUse"><path id="v-124" stroke="#666" fill="#666" transform="rotate(180)" d="M 4 -4 0 0 4 4 z"/></marker></defs><g joint-selector="layers" class="joint-layers"><g joint-selector="cells" class="joint-cells-layer joint-viewport"><g model-id="0b81a10e-4593-4c80-abba-30484e969649" data-type="ast.Node" id="j_57" class="joint-cell joint-type-ast joint-type-ast-node joint-element joint-theme-default" transform="translate(0,0)"><rect id="v-177" rx="5" ry="5" stroke="none" fill="black" width="120" height="30"/><text id="v-178" font-size="10" xml:space="preserve" y="0.8em" fill="white" font-family="'Helvetica Neue Light','Helvetica Neue','Source Sans Pro',sans-serif" letter-spacing="1px" transform="matrix(1,0,0,1,38.9,10.5)"><tspan dy="0" class="v-line">Program</tspan></text><path id="v-179" stroke="#666" d="M 0 0 0 10 M -5 10 5 10" visibility="hidden" pointer-events="none" transform="matrix(1,0,0,1,60,30)"/></g><g model-id="fa67bc96-d0ce-4253-83d3-0d0a4453ad38" data-type="ast.Node" id="j_58" class="joint-cell joint-type-ast joint-type-ast-node joint-element joint-theme-default" transform="translate(80,50)"><rect id="v-182" rx="5" ry="5" stroke="none" fill="#232323" width="120" height="30"/><text id="v-183" font-size="10" xml:space="preserve" y="0.8em" fill="white" font-family="'Helvetica Neue Light','Helvetica Neue','Source Sans Pro',sans-serif" letter-spacing="1px" transform="matrix(1,0,0,1,9.9,10.5)"><tspan dy="0" class="v-line">VariableDeclaration</tspan></text><path id="v-184" stroke="#666" d="M 0 0 0 10 M -5 10 5 10" visibility="hidden" pointer-events="none" transform="matrix(1,0,0,1,60,30)"/></g><g model-id="8deada22-513e-4f9a-b76c-013f456ff21a" data-type="ast.Node" id="j_60" class="joint-cell joint-type-ast joint-type-ast-node joint-element joint-theme-default" transform="translate(160,100)"><rect id="v-187" rx="5" ry="5" stroke="none" fill="#414141" width="120" height="30"/><text id="v-188" font-size="10" xml:space="preserve" y="0.8em" fill="white" font-family="'Helvetica Neue Light','Helvetica Neue','Source Sans Pro',sans-serif" letter-spacing="1px" transform="matrix(1,0,0,1,12.6,10.5)"><tspan dy="0" class="v-line">VariableDeclarator</tspan></text><path id="v-189" stroke="#666" d="M 0 0 0 10 M -5 10 5 10" visibility="hidden" pointer-events="none" transform="matrix(1,0,0,1,60,30)"/></g><g model-id="033385fe-452a-4abd-ae72-1dc67699a8b0" data-type="ast.Node" id="j_62" class="joint-cell joint-type-ast joint-type-ast-node joint-element joint-theme-default" transform="translate(240,150)"><rect id="v-192" rx="5" ry="5" stroke="none" fill="#ff5246" width="120" height="30"/><text id="v-193" font-size="10" xml:space="preserve" y="0.8em" fill="white" font-family="'Helvetica Neue Light','Helvetica Neue','Source Sans Pro',sans-serif" letter-spacing="1px" transform="matrix(1,0,0,1,46.6,10.5)"><tspan dy="0" class="v-line">name</tspan></text><path id="v-194" stroke="#666" d="M 0 0 0 10 M -5 10 5 10" visibility="hidden" pointer-events="none" transform="matrix(1,0,0,1,60,30)"/></g><g model-id="192f14b3-94e1-4325-b7ce-4ccab3670a72" data-type="ast.Node" id="j_64" class="joint-cell joint-type-ast joint-type-ast-node joint-element joint-theme-default" transform="translate(240,200)"><rect id="v-197" rx="5" ry="5" stroke="none" fill="#77c63d" width="120" height="30"/><text id="v-198" font-size="10" xml:space="preserve" y="0.8em" fill="white" font-family="'Helvetica Neue Light','Helvetica Neue','Source Sans Pro',sans-serif" letter-spacing="1px" transform="matrix(1,0,0,1,45.5,10.5)"><tspan dy="0" class="v-line">'Ding'</tspan></text><path id="v-199" stroke="#666" d="M 0 0 0 10 M -5 10 5 10" visibility="hidden" pointer-events="none" transform="matrix(1,0,0,1,60,30)"/></g><g model-id="e50ef022-48f9-4ba3-8fdb-0ac3bc6dfff5" data-type="ast.Node" id="j_66" class="joint-cell joint-type-ast joint-type-ast-node joint-element joint-theme-default" transform="translate(80,250)"><rect id="v-202" rx="5" ry="5" stroke="none" fill="#232323" width="120" height="30"/><text id="v-203" font-size="10" xml:space="preserve" y="0.8em" fill="white" font-family="'Helvetica Neue Light','Helvetica Neue','Source Sans Pro',sans-serif" letter-spacing="1px" transform="matrix(1,0,0,1,6.4,10.5)"><tspan dy="0" class="v-line">ExpressionStatement</tspan></text><path id="v-204" stroke="#666" d="M 0 0 0 10 M -5 10 5 10" visibility="hidden" pointer-events="none" transform="matrix(1,0,0,1,60,30)"/></g><g model-id="5775ccbb-6bb4-4b6d-afbb-8d0d0f76d3d6" data-type="ast.Node" id="j_68" class="joint-cell joint-type-ast joint-type-ast-node joint-element joint-theme-default" transform="translate(160,300)"><rect id="v-207" rx="5" ry="5" stroke="none" fill="#232323" width="120" height="30"/><text id="v-208" font-size="10" xml:space="preserve" y="0.8em" fill="white" font-family="'Helvetica Neue Light','Helvetica Neue','Source Sans Pro',sans-serif" letter-spacing="1px" transform="matrix(1,0,0,1,22.9,10.5)"><tspan dy="0" class="v-line">CallExpression</tspan></text><path id="v-209" stroke="#666" d="M 0 0 0 10 M -5 10 5 10" visibility="hidden" pointer-events="none" transform="matrix(1,0,0,1,60,30)"/></g><g model-id="094e0d08-60cb-40d0-8036-4dc06442de16" data-type="ast.Node" id="j_70" class="joint-cell joint-type-ast joint-type-ast-node joint-element joint-theme-default" transform="translate(240,350)"><rect id="v-212" rx="5" ry="5" stroke="none" fill="#232323" width="120" height="30"/><text id="v-213" font-size="10" xml:space="preserve" y="0.8em" fill="white" font-family="'Helvetica Neue Light','Helvetica Neue','Source Sans Pro',sans-serif" letter-spacing="1px" transform="matrix(1,0,0,1,12.6,10.5)"><tspan dy="0" class="v-line">MemberExpression</tspan></text><path id="v-214" stroke="#666" d="M 0 0 0 10 M -5 10 5 10" visibility="hidden" pointer-events="none" transform="matrix(1,0,0,1,60,30)"/></g><g model-id="c7ec19dc-bff7-4bf1-a2c6-12ee8b5919bc" data-type="ast.Node" id="j_72" class="joint-cell joint-type-ast joint-type-ast-node joint-element joint-theme-default" transform="translate(320,400)"><rect id="v-217" rx="5" ry="5" stroke="none" fill="#ff5246" width="120" height="30"/><text id="v-218" font-size="10" xml:space="preserve" y="0.8em" fill="white" font-family="'Helvetica Neue Light','Helvetica Neue','Source Sans Pro',sans-serif" letter-spacing="1px" transform="matrix(1,0,0,1,40.8,10.5)"><tspan dy="0" class="v-line">console</tspan></text><path id="v-219" stroke="#666" d="M 0 0 0 10 M -5 10 5 10" visibility="hidden" pointer-events="none" transform="matrix(1,0,0,1,60,30)"/></g><g model-id="121eaadb-b001-44b3-a92c-44d5b4e9c2af" data-type="ast.Node" id="j_74" class="joint-cell joint-type-ast joint-type-ast-node joint-element joint-theme-default" transform="translate(320,450)"><rect id="v-222" rx="5" ry="5" stroke="none" fill="#ff5246" width="120" height="30"/><text id="v-223" font-size="10" xml:space="preserve" y="0.8em" fill="white" font-family="'Helvetica Neue Light','Helvetica Neue','Source Sans Pro',sans-serif" letter-spacing="1px" transform="matrix(1,0,0,1,52.4,10.5)"><tspan dy="0" class="v-line">log</tspan></text><path id="v-224" stroke="#666" d="M 0 0 0 10 M -5 10 5 10" visibility="hidden" pointer-events="none" transform="matrix(1,0,0,1,60,30)"/></g><g model-id="cf4694d5-4617-4ce7-a64d-82e44c4a629b" data-type="ast.Node" id="j_76" class="joint-cell joint-type-ast joint-type-ast-node joint-element joint-theme-default" transform="translate(240,500)"><rect id="v-227" rx="5" ry="5" stroke="none" fill="#63c1f1" width="120" height="30"/><text id="v-228" font-size="10" xml:space="preserve" y="0.8em" fill="white" font-family="'Helvetica Neue Light','Helvetica Neue','Source Sans Pro',sans-serif" letter-spacing="1px" transform="matrix(1,0,0,1,33.4,10.5)"><tspan dy="0" class="v-line">arguments</tspan></text><path id="v-229" stroke="#666" d="M 0 0 0 10 M -5 10 5 10" visibility="hidden" pointer-events="none" transform="matrix(1,0,0,1,60,30)"/></g><g model-id="824dfa37-5aad-41ca-9d54-db9a8cdd02cc" data-type="ast.Node" id="j_78" class="joint-cell joint-type-ast joint-type-ast-node joint-element joint-theme-default" transform="translate(320,550)"><rect id="v-232" rx="5" ry="5" stroke="none" fill="#ff5246" width="120" height="30"/><text id="v-233" font-size="10" xml:space="preserve" y="0.8em" fill="white" font-family="'Helvetica Neue Light','Helvetica Neue','Source Sans Pro',sans-serif" letter-spacing="1px" transform="matrix(1,0,0,1,46.6,10.5)"><tspan dy="0" class="v-line">name</tspan></text><path id="v-234" stroke="#666" d="M 0 0 0 10 M -5 10 5 10" visibility="hidden" pointer-events="none" transform="matrix(1,0,0,1,60,30)"/></g><g model-id="1b8430b8-b97e-4fb7-b4b2-d7d5c903d34e" data-type="ast.Link" id="j_59" class="joint-cell joint-type-ast joint-type-ast-link joint-link joint-theme-default"><path class="connection" id="v-237" fill="none" stroke="#666" pointer-events="none" marker-end="url(#v-2-857093843)" d="M 60 30 L 60 65 L 80 65"/></g><g model-id="8d1cb3d1-75de-4043-8311-1c312ffd0dc4" data-type="ast.Link" id="j_61" class="joint-cell joint-type-ast joint-type-ast-link joint-link joint-theme-default"><path class="connection" id="v-238" fill="none" stroke="#666" pointer-events="none" marker-end="url(#v-2-857093843)" d="M 140 80 L 140 115 L 160 115"/></g><g model-id="e2f8db19-b6b7-4616-933d-1d00c1f2a11c" data-type="ast.Link" id="j_63" class="joint-cell joint-type-ast joint-type-ast-link joint-link joint-theme-default"><path class="connection" id="v-239" fill="none" stroke="#666" pointer-events="none" marker-end="url(#v-2-857093843)" d="M 220 130 L 220 165 L 240 165"/></g><g model-id="65976df9-3b5b-493e-84c5-24f7bed70d44" data-type="ast.Link" id="j_65" class="joint-cell joint-type-ast joint-type-ast-link joint-link joint-theme-default"><path class="connection" id="v-240" fill="none" stroke="#666" pointer-events="none" marker-end="url(#v-2-857093843)" d="M 220 130 L 220 215 L 240 215"/></g><g model-id="2d355853-dcc7-4083-9f67-13e3a51af750" data-type="ast.Link" id="j_67" class="joint-cell joint-type-ast joint-type-ast-link joint-link joint-theme-default"><path class="connection" id="v-241" fill="none" stroke="#666" pointer-events="none" marker-end="url(#v-2-857093843)" d="M 60 30 L 60 265 L 80 265"/></g><g model-id="89b31b4d-6095-437d-a86e-1b4d124aa570" data-type="ast.Link" id="j_69" class="joint-cell joint-type-ast joint-type-ast-link joint-link joint-theme-default"><path class="connection" id="v-242" fill="none" stroke="#666" pointer-events="none" marker-end="url(#v-2-857093843)" d="M 140 280 L 140 315 L 160 315"/></g><g model-id="b86ce6a0-7c07-43c5-a1a0-1574a83e730e" data-type="ast.Link" id="j_71" class="joint-cell joint-type-ast joint-type-ast-link joint-link joint-theme-default"><path class="connection" id="v-243" fill="none" stroke="#666" pointer-events="none" marker-end="url(#v-2-857093843)" d="M 220 330 L 220 365 L 240 365"/></g><g model-id="d00d1cae-32a8-4438-bba1-a53ec67d8598" data-type="ast.Link" id="j_73" class="joint-cell joint-type-ast joint-type-ast-link joint-link joint-theme-default"><path class="connection" id="v-244" fill="none" stroke="#666" pointer-events="none" marker-end="url(#v-2-857093843)" d="M 300 380 L 300 415 L 320 415"/></g><g model-id="f92f2914-f440-46a7-982e-6072f185cfb6" data-type="ast.Link" id="j_75" class="joint-cell joint-type-ast joint-type-ast-link joint-link joint-theme-default"><path class="connection" id="v-245" fill="none" stroke="#666" pointer-events="none" marker-end="url(#v-2-857093843)" d="M 300 380 L 300 465 L 320 465"/></g><g model-id="d9ba4060-8e91-4e19-92fe-caa1af5d5854" data-type="ast.Link" id="j_77" class="joint-cell joint-type-ast joint-type-ast-link joint-link joint-theme-default"><path class="connection" id="v-246" fill="none" stroke="#666" pointer-events="none" marker-end="url(#v-2-857093843)" d="M 220 330 L 220 515 L 240 515"/></g><g model-id="e3803204-7405-40f8-a0cd-21569e1f22b1" data-type="ast.Link" id="j_79" class="joint-cell joint-type-ast joint-type-ast-link joint-link joint-theme-default"><path class="connection" id="v-247" fill="none" stroke="#666" pointer-events="none" marker-end="url(#v-2-857093843)" d="M 300 530 L 300 565 L 320 565"/></g></g><g joint-selector="tools" class="joint-tools-layer"/></g></svg>